<?xml version="1.0" encoding="UTF-8"?>
<!DOCTYPE svg PUBLIC "-//W3C//DTD SVG 1.1//EN" "http://www.w3.org/Graphics/SVG/1.1/DTD/svg11.dtd">
<!-- Creator: CorelDRAW -->
<svg xmlns="http://www.w3.org/2000/svg" xml:space="preserve" width="75mm" height="50mm" style="shape-rendering:geometricPrecision; text-rendering:geometricPrecision; image-rendering:optimizeQuality; fill-rule:evenodd; clip-rule:evenodd"
viewBox="0 0 75 50"
 xmlns:xlink="http://www.w3.org/1999/xlink">
 <defs>
  <style type="text/css">
   <![CDATA[
    .fil1 {fill:#1F1A17;fill-rule:nonzero}
    .fil0 {fill:#005EA2;fill-rule:nonzero}
   ]]>
  </style>
 </defs>
 <g id="Layer_x0020_3">
  <metadata id="CorelCorpID_0Corel-Layer"/>
  <path class="fil0" d="M5.9825 35.3507c-1.5687,0 -2.7154,-0.2951 -3.44,-0.8852 -0.7246,-0.5902 -1.0869,-1.4007 -1.0869,-2.4316 0,-0.8665 0.2539,-1.8675 0.7619,-3.003l3.7426 -8.3816c0.1793,-0.3885 0.4632,-0.5827 0.8516,-0.5827l8.5833 0c0.2839,0 0.4258,0.0971 0.4258,0.2913 0,0.0897 -0.0299,0.1868 -0.0896,0.2914l-3.8995 8.7626c-0.4034,0.8964 -0.6051,1.5911 -0.6051,2.0842 0,0.8067 0.5902,1.2101 1.7705,1.2101l8.8074 0c0.2689,0 0.4034,0.0972 0.4034,0.2914 0,0.1046 -0.0299,0.2091 -0.0897,0.3137l-0.6275 1.4343c-0.1793,0.4034 -0.4631,0.6051 -0.8516,0.6051l-14.6566 0z"/>
  <path id="1" class="fil0" d="M22.7906 35.3507c-0.269,0 -0.4034,-0.0896 -0.4034,-0.2689 0,-0.0897 0.0224,-0.2017 0.0672,-0.3362l6.2974 -14.0963c0.1793,-0.3885 0.4632,-0.5827 0.8516,-0.5827l18.0182 0c0.7769,0 1.4642,0.1195 2.0618,0.3586 0.5976,0.239 1.0981,0.5714 1.5015,0.9973 0.4034,0.4258 0.7097,0.93 0.9189,1.5127 0.2091,0.5827 0.3137,1.2176 0.3137,1.9049 0,0.9114 -0.1569,1.804 -0.4706,2.6781 -0.3138,0.874 -0.7433,1.6994 -1.2886,2.4763 -0.5454,0.7769 -1.1878,1.4941 -1.9274,2.1515 -0.7395,0.6574 -1.5388,1.2214 -2.3979,1.692 -0.8591,0.4706 -1.7592,0.8404 -2.7005,1.1093 -0.9412,0.2689 -1.8825,0.4034 -2.8237,0.4034l-18.0182 0zm19.4973 -9.166c0.4781,-1.0757 0.7171,-1.8601 0.7171,-2.3531 0,-0.4333 -0.1494,-0.7321 -0.4482,-0.8964 -0.2988,-0.1644 -0.7321,-0.2465 -1.2998,-0.2465l-4.5494 0 -4.4373 10.0175 4.527 0c0.4482,0 0.8665,-0.0709 1.2549,-0.2129 0.3885,-0.1419 0.7583,-0.3735 1.1094,-0.6947 0.3511,-0.3212 0.6947,-0.7395 1.0309,-1.255 0.3361,-0.5154 0.676,-1.1541 1.0197,-1.9161l1.0757 -2.4428z"/>
  <path id="12" class="fil0" d="M56.9445 35.3507c-1.5687,0 -2.7154,-0.2951 -3.44,-0.8852 -0.7246,-0.5902 -1.0869,-1.4007 -1.0869,-2.4316 0,-0.8665 0.2539,-1.8675 0.7619,-3.003l3.7426 -8.3816c0.1793,-0.3885 0.4632,-0.5827 0.8516,-0.5827l8.5833 0c0.2839,0 0.4258,0.0971 0.4258,0.2913 0,0.0897 -0.0299,0.1868 -0.0896,0.2914l-3.8995 8.7626c-0.4034,0.8964 -0.6051,1.5911 -0.6051,2.0842 0,0.8067 0.5902,1.2101 1.7705,1.2101l8.8074 0c0.2689,0 0.4034,0.0972 0.4034,0.2914 0,0.1046 -0.0299,0.2091 -0.0897,0.3137l-0.6275 1.4343c-0.1793,0.4034 -0.4631,0.6051 -0.8516,0.6051l-14.6566 0z"/>
  <path class="fil1" d="M10.7545 16.8421c-0.0581,0 -0.0872,-0.0184 -0.0872,-0.0551 0,-0.0183 0.0046,-0.0412 0.0138,-0.0688l0.523 -1.1607 -1.8121 1.1607c-0.0673,0.0429 -0.1293,0.0742 -0.1858,0.0941 -0.0566,0.0199 -0.1079,0.0298 -0.1537,0.0298l-0.2661 0c-0.0459,0 -0.091,-0.0099 -0.1354,-0.0298 -0.0443,-0.0199 -0.0833,-0.0512 -0.1169,-0.0941l-0.9313 -1.1607 -0.5185 1.1607c-0.0367,0.0826 -0.0963,0.1239 -0.1789,0.1239l-0.4266 0c-0.0581,0 -0.0872,-0.0184 -0.0872,-0.0551 0,-0.0214 0.0061,-0.0443 0.0183,-0.0688l1.2846 -2.8856c0.0367,-0.0796 0.0963,-0.1193 0.1789,-0.1193l0.3625 0c0.1039,0 0.1835,0.0397 0.2385,0.1193l1.2846 1.9452 3.1655 -1.9452c0.1346,-0.0796 0.26,-0.1193 0.3762,-0.1193l0.367 0c0.055,0 0.0826,0.0199 0.0826,0.0596 0,0.0092 -0.0008,0.0184 -0.0023,0.0276 -0.0016,0.0091 -0.0054,0.0198 -0.0115,0.0321l-1.2891 2.8856c-0.0367,0.0826 -0.0948,0.1239 -0.1744,0.1239l-1.5185 0z"/>
  <path id="1" class="fil1" d="M15.9294 15.4061c-0.0551,0 -0.0826,-0.0183 -0.0826,-0.055 0,-0.0214 0.0061,-0.0428 0.0184,-0.0642l0.1284 -0.2982c0.0367,-0.0796 0.0964,-0.1193 0.1789,-0.1193l2.1884 0c0.0642,0 0.0963,0.0153 0.0963,0.0459 0,0.0061 -0.0031,0.0183 -0.0092,0.0367l-0.1697 0.3716c-0.0245,0.055 -0.0765,0.0825 -0.156,0.0825l-2.1929 0zm-1.6195 1.436c-0.156,0 -0.2944,-0.0245 -0.4152,-0.0734 -0.1208,-0.0489 -0.2232,-0.117 -0.3073,-0.2042 -0.0841,-0.0871 -0.1476,-0.1919 -0.1904,-0.3142 -0.0428,-0.1224 -0.0643,-0.2554 -0.0643,-0.3991 0,-0.1774 0.0306,-0.3541 0.0918,-0.5299 0.0612,-0.1759 0.146,-0.3426 0.2546,-0.5001 0.1086,-0.1575 0.237,-0.3043 0.3854,-0.4404 0.1483,-0.1361 0.3104,-0.2531 0.4863,-0.351 0.1758,-0.0978 0.3616,-0.1751 0.5574,-0.2316 0.1957,-0.0566 0.3945,-0.0849 0.5964,-0.0849l3.2068 0c0.055,0 0.0826,0.0199 0.0826,0.0596 0,0.0184 -0.0046,0.0383 -0.0138,0.0597l-0.133 0.2936c-0.0367,0.0826 -0.0964,0.1238 -0.179,0.1238l-2.1332 0c-0.0979,0 -0.1866,0.0108 -0.2661,0.0322 -0.0795,0.0214 -0.1522,0.0596 -0.2179,0.1147 -0.0658,0.055 -0.1293,0.1284 -0.1904,0.2202 -0.0612,0.0917 -0.1224,0.2079 -0.1835,0.3486l-0.2203 0.5001c-0.0581,0.1284 -0.1016,0.2393 -0.1307,0.3326 -0.0291,0.0933 -0.0436,0.1736 -0.0436,0.2409 0,0.0948 0.0291,0.1621 0.0872,0.2018 0.0581,0.0398 0.1422,0.0597 0.2523,0.0597l2.1516 0c0.0551,0 0.0826,0.0198 0.0826,0.0596 0,0.0214 -0.0061,0.0428 -0.0183,0.0642l-0.1285 0.2936c-0.0367,0.0826 -0.0963,0.1239 -0.1789,0.1239l-3.2206 0z"/>
  <path id="12" class="fil1" d="M19.4986 16.8421c-0.156,0 -0.2944,-0.0245 -0.4152,-0.0734 -0.1208,-0.0489 -0.2232,-0.117 -0.3073,-0.2042 -0.0841,-0.0871 -0.1476,-0.1919 -0.1904,-0.3142 -0.0428,-0.1224 -0.0643,-0.2554 -0.0643,-0.3991 0,-0.1774 0.0306,-0.3541 0.0918,-0.5299 0.0612,-0.1759 0.146,-0.3426 0.2546,-0.5001 0.1086,-0.1575 0.237,-0.3043 0.3854,-0.4404 0.1483,-0.1361 0.3104,-0.2531 0.4863,-0.351 0.1758,-0.0978 0.3616,-0.1751 0.5574,-0.2316 0.1957,-0.0566 0.3945,-0.0849 0.5964,-0.0849l3.1242 0c0.0551,0 0.0826,0.0199 0.0826,0.0596 0,0.0092 -0.0008,0.0184 -0.0023,0.0276 -0.0015,0.0091 -0.0054,0.0198 -0.0115,0.0321l-0.133 0.2936c-0.0367,0.0826 -0.0964,0.1238 -0.1789,0.1238l-2.0507 0c-0.0979,0 -0.1866,0.0108 -0.2661,0.0322 -0.0795,0.0214 -0.1522,0.0596 -0.2179,0.1147 -0.0658,0.055 -0.1293,0.1284 -0.1904,0.2202 -0.0612,0.0917 -0.1224,0.2079 -0.1835,0.3486l-0.2203 0.5001c-0.0581,0.1284 -0.1016,0.2393 -0.1307,0.3326 -0.0291,0.0933 -0.0436,0.1736 -0.0436,0.2409 0,0.0948 0.0291,0.1621 0.0872,0.2018 0.0581,0.0398 0.1422,0.0597 0.2523,0.0597l2.0691 0c0.055,0 0.0825,0.0198 0.0825,0.0596 0,0.0214 -0.0061,0.0428 -0.0183,0.0642l-0.1285 0.2936c-0.0367,0.0826 -0.0948,0.1239 -0.1743,0.1239l-3.1426 0z"/>
  <path id="123" class="fil1" d="M27.3849 16.8421c-0.0949,0 -0.1606,-0.0306 -0.1973,-0.0918l-0.9543 -1.8396 -2.0231 1.3901 2.0828 0c0.055,0 0.0826,0.0198 0.0826,0.0596 0,0.0214 -0.0062,0.0428 -0.0184,0.0642l-0.1284 0.2936c-0.0367,0.0826 -0.0949,0.1239 -0.1744,0.1239l-3.06 0c-0.0397,0 -0.0596,-0.0184 -0.0596,-0.0551 0,-0.0305 0.0245,-0.0627 0.0734,-0.0963l4.1656 -2.8902c0.0857,-0.0582 0.1637,-0.0872 0.234,-0.0872l0.2982 0c0.0428,0 0.0772,0.0076 0.1032,0.0229 0.026,0.0153 0.0467,0.0367 0.062,0.0643l1.5506 2.881c0.0061,0.0245 0.0092,0.0428 0.0092,0.0551 0,0.0275 -0.0115,0.052 -0.0344,0.0734 -0.023,0.0214 -0.0604,0.0321 -0.1124,0.0321l-1.8993 0z"/>
  <path id="1234" class="fil1" d="M34.6701 16.8421c-0.0917,0 -0.1697,-0.0054 -0.234,-0.0161 -0.0642,-0.0107 -0.1376,-0.0359 -0.2202,-0.0757l-3.0737 -1.4221 -0.6148 1.39c-0.0367,0.0826 -0.0948,0.1239 -0.1743,0.1239l-0.5918 0c-0.0581,0 -0.0872,-0.0184 -0.0872,-0.0551 0,-0.0214 0.0061,-0.0443 0.0183,-0.0688l1.2846 -2.8856c0.0367,-0.0796 0.0963,-0.1193 0.1789,-0.1193l0.523 0c0.101,0 0.1812,0.0046 0.2409,0.0138 0.0596,0.0091 0.1292,0.0336 0.2087,0.0734l2.849 1.3625 0.5964 -1.3304c0.0367,-0.0796 0.0948,-0.1193 0.1743,-0.1193l0.5918 0c0.0581,0 0.0872,0.0199 0.0872,0.0596 0,0.0184 -0.0061,0.0383 -0.0184,0.0597l-1.2845 2.8856c-0.0367,0.0826 -0.0964,0.1239 -0.1789,0.1239l-0.2753 0z"/>
  <path id="12345" class="fil1" d="M35.6794 16.8421c-0.0551,0 -0.0826,-0.0184 -0.0826,-0.0551 0,-0.0183 0.0046,-0.0412 0.0138,-0.0688l1.2891 -2.8856c0.0367,-0.0796 0.0948,-0.1193 0.1743,-0.1193l1.5782 0c0.0581,0 0.0872,0.0199 0.0872,0.0596 0,0.0184 -0.0062,0.0383 -0.0184,0.0597l-1.2845 2.8856c-0.0367,0.0826 -0.0949,0.1239 -0.1744,0.1239l-1.5827 0z"/>
  <path id="123456" class="fil1" d="M37.9273 16.8421c-0.055,0 -0.0825,-0.0184 -0.0825,-0.0551 0,-0.0183 0.0046,-0.0412 0.0137,-0.0688l0.1331 -0.2936c0.0244,-0.052 0.0481,-0.0917 0.0711,-0.1193 0.0229,-0.0275 0.065,-0.0611 0.1261,-0.1009l3.0876 -1.9544 -2.1012 0c-0.055,0 -0.0826,-0.0183 -0.0826,-0.055 0,-0.0214 0.0061,-0.0444 0.0184,-0.0688l0.1284 -0.2936c0.0367,-0.0796 0.0964,-0.1193 0.179,-0.1193l4.2803 0c0.0581,0 0.0871,0.0199 0.0871,0.0596 0,0.0184 -0.0045,0.0383 -0.0137,0.0597l-0.1331 0.2936c-0.0244,0.052 -0.0489,0.0925 -0.0734,0.1216 -0.0244,0.029 -0.0673,0.0634 -0.1284,0.1032l-2.9224 1.9498 2.092 0c0.052,0 0.078,0.0198 0.078,0.0596 0,0.0061 -0.0008,0.0153 -0.0023,0.0275 -0.0015,0.0123 -0.0054,0.0245 -0.0115,0.0367l-0.133 0.2936c-0.0367,0.0826 -0.0948,0.1239 -0.1743,0.1239l-4.4364 0z"/>
  <path id="1234567" class="fil1" d="M47.1074 16.8421c-0.0949,0 -0.1606,-0.0306 -0.1973,-0.0918l-0.9543 -1.8396 -2.0231 1.3901 2.0828 0c0.055,0 0.0826,0.0198 0.0826,0.0596 0,0.0214 -0.0062,0.0428 -0.0184,0.0642l-0.1284 0.2936c-0.0367,0.0826 -0.0949,0.1239 -0.1744,0.1239l-3.06 0c-0.0397,0 -0.0596,-0.0184 -0.0596,-0.0551 0,-0.0305 0.0245,-0.0627 0.0734,-0.0963l4.1656 -2.8902c0.0857,-0.0582 0.1637,-0.0872 0.234,-0.0872l0.2982 0c0.0428,0 0.0772,0.0076 0.1032,0.0229 0.026,0.0153 0.0467,0.0367 0.062,0.0643l1.5506 2.881c0.0061,0.0245 0.0092,0.0428 0.0092,0.0551 0,0.0275 -0.0115,0.052 -0.0344,0.0734 -0.023,0.0214 -0.0604,0.0321 -0.1124,0.0321l-1.8993 0z"/>
  <path id="12345678" class="fil1" d="M49.4195 16.8421c-0.055,0 -0.0825,-0.0184 -0.0825,-0.0551 0,-0.0183 0.0045,-0.0412 0.0137,-0.0688l1.2892 -2.8856c0.0367,-0.0796 0.0948,-0.1193 0.1743,-0.1193l3.6885 0c0.159,0 0.2997,0.0245 0.4221,0.0734 0.1223,0.0489 0.2248,0.117 0.3074,0.2041 0.0825,0.0872 0.1452,0.1904 0.188,0.3097 0.0429,0.1193 0.0643,0.2493 0.0643,0.39 0,0.1865 -0.0321,0.3693 -0.0964,0.5482 -0.0642,0.1789 -0.1521,0.3479 -0.2638,0.5069 -0.1116,0.1591 -0.2431,0.3059 -0.3945,0.4405 -0.1514,0.1345 -0.315,0.25 -0.4909,0.3463 -0.1758,0.0964 -0.3601,0.1721 -0.5528,0.2271 -0.1927,0.0551 -0.3854,0.0826 -0.5781,0.0826l-3.6885 0zm3.9913 -1.8764c0.0979,-0.2202 0.1468,-0.3807 0.1468,-0.4817 0,-0.0887 -0.0305,-0.1498 -0.0917,-0.1835 -0.0612,-0.0336 -0.1499,-0.0505 -0.2661,-0.0505l-0.9313 0 -0.9084 2.0508 0.9268 0c0.0917,0 0.1773,-0.0146 0.2569,-0.0436 0.0795,-0.0291 0.1552,-0.0765 0.2271,-0.1423 0.0718,-0.0657 0.1422,-0.1513 0.211,-0.2569 0.0688,-0.1055 0.1384,-0.2362 0.2087,-0.3922l0.2202 -0.5001z"/>
  <path id="123456789" class="fil1" d="M56.535 16.8421c-0.159,0 -0.2997,-0.0252 -0.4221,-0.0757 -0.1223,-0.0505 -0.2248,-0.12 -0.3073,-0.2087 -0.0826,-0.0887 -0.1453,-0.1935 -0.1881,-0.3143 -0.0428,-0.1208 -0.0643,-0.2516 -0.0643,-0.3922 0,-0.1805 0.0306,-0.3579 0.0918,-0.5322 0.0612,-0.1743 0.146,-0.341 0.2546,-0.5001 0.1086,-0.159 0.237,-0.3058 0.3854,-0.4404 0.1483,-0.1346 0.3104,-0.2508 0.4863,-0.3487 0.1758,-0.0978 0.3616,-0.1751 0.5574,-0.2316 0.1957,-0.0566 0.3961,-0.0849 0.601,-0.0849l2.2479 0c0.1621,0 0.3051,0.0245 0.429,0.0734 0.1239,0.0489 0.2271,0.117 0.3097,0.2041 0.0825,0.0872 0.1452,0.1904 0.1881,0.3097 0.0428,0.1193 0.0642,0.2493 0.0642,0.39 0,0.1804 -0.0314,0.3586 -0.0941,0.5344 -0.0627,0.1759 -0.1491,0.3433 -0.2592,0.5024 -0.1101,0.159 -0.2401,0.3066 -0.3899,0.4427 -0.1499,0.1361 -0.3135,0.2539 -0.4909,0.3533 -0.1774,0.0994 -0.364,0.1773 -0.5597,0.2339 -0.1957,0.0566 -0.393,0.0849 -0.5918,0.0849l-2.248 0zm2.7618 -1.8764c0.1009,-0.2141 0.1514,-0.3746 0.1514,-0.4817 0,-0.0887 -0.0313,-0.1498 -0.094,-0.1835 -0.0627,-0.0336 -0.1553,-0.0505 -0.2776,-0.0505l-0.6239 0c-0.0887,0 -0.1705,0.0115 -0.2455,0.0345 -0.0749,0.0229 -0.1445,0.0619 -0.2087,0.1169 -0.0642,0.0551 -0.1262,0.1285 -0.1858,0.2203 -0.0597,0.0917 -0.1201,0.2064 -0.1812,0.344l-0.2202 0.5001c-0.1163,0.26 -0.1744,0.4557 -0.1744,0.5872 0,0.0887 0.026,0.1522 0.078,0.1904 0.052,0.0382 0.1269,0.0574 0.2248,0.0574l0.6285 0c0.0948,0 0.182,-0.0146 0.2615,-0.0436 0.0796,-0.0291 0.156,-0.0757 0.2294,-0.14 0.0734,-0.0642 0.1438,-0.1498 0.2111,-0.2569 0.0672,-0.107 0.1361,-0.2385 0.2064,-0.3945l0.2202 -0.5001z"/>
  <path id="12345678910" class="fil1" d="M60.7373 16.8421c-0.055,0 -0.0825,-0.0184 -0.0825,-0.0551 0,-0.0183 0.0046,-0.0412 0.0137,-0.0688l0.1331 -0.2936c0.0367,-0.0826 0.0963,-0.1238 0.1789,-0.1238l2.6196 0 -1.7021 -0.9818c-0.1376,-0.0795 -0.2316,-0.1652 -0.2821,-0.2569 -0.0505,-0.0918 -0.0757,-0.1835 -0.0757,-0.2753 0,-0.1284 0.0336,-0.2569 0.1009,-0.3854 0.0673,-0.1284 0.1606,-0.2439 0.2799,-0.3463 0.1193,-0.1025 0.2599,-0.1851 0.422,-0.2478 0.1621,-0.0627 0.338,-0.094 0.5276,-0.094l3.3812 0c0.0581,0 0.0871,0.0199 0.0871,0.0596 0,0.0184 -0.0061,0.0383 -0.0183,0.0597l-0.1285 0.2936c-0.0367,0.0826 -0.0963,0.1238 -0.1789,0.1238l-2.5416 0 1.7021 0.9818c0.1406,0.0795 0.2355,0.1667 0.2844,0.2615 0.0489,0.0948 0.0734,0.1866 0.0734,0.2753 0,0.1284 -0.0329,0.2569 -0.0986,0.3853 -0.0658,0.1285 -0.1583,0.244 -0.2776,0.3464 -0.1193,0.1025 -0.26,0.1851 -0.4221,0.2478 -0.1621,0.0627 -0.3395,0.094 -0.5321,0.094l-3.4638 0z"/>
 </g>
</svg>
